<svg width="19" height="22" viewBox="0 0 19 22" fill="none" xmlns="http://www.w3.org/2000/svg">
<path d="M16.4346 4.95508C16.3964 4.18663 16.074 3.45777 15.5273 2.91113C14.9807 2.36451 14.2519 2.04209 13.4834 2.00391L13.3291 2H5.10938C4.28474 2.00007 3.49424 2.32803 2.91113 2.91113C2.32803 3.49424 2.00007 4.28474 2 5.10938V19.7441L5.94922 17.2754L6.0752 17.209C6.3756 17.0761 6.72611 17.0981 7.00977 17.2754L10.959 19.7461V5.10938C10.9591 4.48094 11.2089 3.87797 11.6533 3.43359C12.0977 2.98929 12.7007 2.74023 13.3291 2.74023C13.8813 2.74032 14.3291 3.188 14.3291 3.74023C14.3288 4.29225 13.8812 4.74015 13.3291 4.74023C13.2311 4.74023 13.1367 4.77843 13.0674 4.84766C12.9981 4.91696 12.9591 5.01137 12.959 5.10938V8.21973H16.4385V5.10938L16.4346 4.95508ZM18.4385 8.53418C18.4385 8.98095 18.2612 9.40962 17.9453 9.72559C17.6294 10.0415 17.2007 10.2197 16.7539 10.2197H12.959V20.3154L12.9443 20.54C12.9145 20.7619 12.84 20.9767 12.7256 21.1709C12.573 21.4297 12.3536 21.6434 12.0908 21.7891C11.828 21.9347 11.5308 22.0068 11.2305 21.999C10.9301 21.9912 10.6368 21.9032 10.3818 21.7441H10.3809L6.47852 19.3027L2.57715 21.7412V21.7422C2.32272 21.9009 2.03024 21.989 1.73047 21.9971C1.43057 22.0051 1.13377 21.9321 0.871094 21.7871C0.608408 21.6421 0.388436 21.4299 0.235352 21.1719C0.120603 20.9784 0.0462145 20.7644 0.015625 20.543L0 20.3193V5.10938C7.21334e-05 3.75431 0.537913 2.45427 1.49609 1.49609C2.45427 0.537913 3.75431 7.21334e-05 5.10938 0H13.3291L13.582 0.00585938C14.845 0.0684409 16.044 0.597702 16.9424 1.49609C17.9006 2.45427 18.4384 3.75431 18.4385 5.10938V8.53418Z" fill="white"/>
</svg>
