<svg width="23" height="22" viewBox="0 0 23 22" fill="none" xmlns="http://www.w3.org/2000/svg">
<path d="M17.8232 9.88867C17.8231 5.53186 14.2914 2 9.93457 2C5.57783 2.00012 2.04602 5.53193 2.0459 9.88867C2.0459 14.2455 5.57776 17.7772 9.93457 17.7773C14.2915 17.7773 17.8232 14.2456 17.8232 9.88867ZM19.8232 9.88867C19.8232 15.3502 15.3961 19.7773 9.93457 19.7773C4.47319 19.7772 0.0458984 15.3501 0.0458984 9.88867C0.0460175 4.42736 4.47326 0.000119055 9.93457 0C15.396 0 19.8231 4.42729 19.8232 9.88867Z" fill="white"/>
<path d="M15.5056 15.4596C15.8717 15.0935 16.4507 15.0709 16.8435 15.3912L16.9197 15.4596L21.7527 20.2926L21.822 20.3688C22.1423 20.7616 22.1188 21.3406 21.7527 21.7067C21.3866 22.0728 20.8076 22.0963 20.4148 21.776L20.3386 21.7067L15.5056 16.8737L15.4373 16.7975C15.1169 16.4047 15.1395 15.8257 15.5056 15.4596Z" fill="white"/>
</svg>
