<svg width="22" height="22" viewBox="0 0 22 22" fill="none" xmlns="http://www.w3.org/2000/svg">
<path d="M10.541 0.113031C10.8787 -0.0631175 11.2937 -0.0332982 11.6055 0.201898L21.2646 7.48901L21.3418 7.55346L21.4805 7.69506C21.7868 8.03914 21.9698 8.47835 21.9961 8.94213L21.9971 8.99877V20.1345C21.9951 20.6289 21.798 21.1025 21.4482 21.4519C21.0985 21.8013 20.6243 21.9982 20.1299 21.9998H14.332C13.7797 21.9998 13.332 21.552 13.332 20.9998V16.3337C13.332 15.7151 13.0858 15.1218 12.6484 14.6843C12.211 14.2469 11.6176 14.0008 10.999 14.0007C10.3803 14.0007 9.78613 14.2468 9.34863 14.6843C8.91133 15.1218 8.66602 15.7152 8.66602 16.3337V20.9968C8.66602 21.549 8.21819 21.9967 7.66602 21.9968H1.86621C1.37174 21.9953 0.897499 21.7986 0.547852 21.449C0.241992 21.143 0.0532799 20.7418 0.00976562 20.3152L0 20.1306V8.99877L0.00195312 8.94311C0.0314154 8.41212 0.266388 7.91315 0.657227 7.55248L0.733398 7.48901L10.4014 0.200922L10.541 0.113031ZM15.332 19.9998H19.9971V9.05053C19.9959 9.04291 19.9918 9.03725 19.9873 9.031L11.0029 2.2517L2.00781 9.03295C2.00437 9.03833 2.00098 9.04319 2 9.04955V19.9968H6.66602V16.3337C6.66602 15.1847 7.1222 14.0828 7.93457 13.2703C8.74714 12.4577 9.84987 12.0007 10.999 12.0007C12.148 12.0008 13.25 12.4578 14.0625 13.2703C14.875 14.0828 15.332 15.1847 15.332 16.3337V19.9998Z" fill="white"/>
</svg>
