<svg width="20" height="22" viewBox="0 0 20 22" fill="none" xmlns="http://www.w3.org/2000/svg">
<path d="M17.5 21V19.75C17.5 18.7323 17.2996 17.7244 16.9102 16.7842C16.5207 15.8439 15.9501 14.9892 15.2305 14.2695C14.5108 13.5499 13.6561 12.9793 12.7158 12.5898C11.7756 12.2004 10.7677 12 9.75 12C8.73226 12 7.72445 12.2004 6.78418 12.5898C5.84391 12.9793 4.98919 13.5499 4.26953 14.2695C3.54988 14.9892 2.97932 15.8439 2.58984 16.7842C2.20037 17.7244 2 18.7323 2 19.75V21C2 21.5523 1.55228 22 1 22C0.447715 22 0 21.5523 0 21V19.75C-1.71226e-08 18.4696 0.252204 17.2015 0.742188 16.0186C1.23217 14.8357 1.95016 13.7608 2.85547 12.8555C3.76078 11.9502 4.83573 11.2322 6.01855 10.7422C7.20148 10.2522 8.46961 10 9.75 10C11.0304 10 12.2985 10.2522 13.4814 10.7422C14.6643 11.2322 15.7392 11.9502 16.6445 12.8555C17.5498 13.7608 18.2678 14.8357 18.7578 16.0186C19.2478 17.2015 19.5 18.4696 19.5 19.75V21C19.5 21.5523 19.0523 22 18.5 22C17.9477 22 17.5 21.5523 17.5 21Z" fill="white"/>
<path d="M13.7451 5.80176C13.6961 4.81307 13.2814 3.87516 12.5781 3.17188C11.8748 2.46859 10.9369 2.0539 9.94824 2.00488L9.75 2C8.68913 2 7.67202 2.42173 6.92188 3.17188C6.17173 3.92202 5.75 4.93913 5.75 6L5.75488 6.19824C5.8039 7.18693 6.21859 8.12484 6.92188 8.82812C7.67202 9.57827 8.68913 10 9.75 10L9.94824 9.99512C10.9369 9.9461 11.8748 9.53141 12.5781 8.82812C13.3283 8.07798 13.75 7.06087 13.75 6L13.7451 5.80176ZM15.7422 6.29785C15.6685 7.7807 15.047 9.18738 13.9922 10.2422C12.9374 11.297 11.5307 11.9185 10.0479 11.9922L9.75 12C8.1587 12 6.63303 11.3674 5.50781 10.2422C4.453 9.18738 3.83146 7.7807 3.75781 6.29785L3.75 6C3.75 4.4087 4.38259 2.88303 5.50781 1.75781C6.63303 0.632594 8.1587 0 9.75 0L10.0479 0.0078125C11.5307 0.0814626 12.9374 0.703003 13.9922 1.75781C15.1174 2.88303 15.75 4.4087 15.75 6L15.7422 6.29785Z" fill="white"/>
</svg>
